<?xml version="1.0" standalone="no"?>
<!DOCTYPE svg PUBLIC "-//W3C//DTD SVG 20010904//EN"
 "http://www.w3.org/TR/2001/REC-SVG-20010904/DTD/svg10.dtd">
<svg version="1.0" xmlns="http://www.w3.org/2000/svg"
 width="397.000000pt" height="509.000000pt" viewBox="0 0 397.000000 509.000000"
 preserveAspectRatio="xMidYMid meet">
<metadata>
Created by potrace 1.15, written by Peter Selinger 2001-2017
</metadata>
<g transform="translate(0.000000,509.000000) scale(0.100000,-0.100000)"
fill="#000000" stroke="none">
<path d="M651 4926 c-35 -20 -50 -54 -51 -118 0 -125 23 -138 243 -138 l164 0
152 -762 c84 -420 155 -774 158 -788 3 -14 -90 99 -208 250 -118 151 -226 291
-241 310 -125 159 -148 191 -148 201 0 7 44 160 97 341 81 272 100 328 115
328 19 0 22 23 9 69 l-7 25 -27 -35 c-21 -27 -24 -36 -14 -44 10 -8 -7 -77
-83 -330 -52 -176 -98 -326 -100 -333 -3 -7 -53 50 -112 125 l-107 138 47 6
c63 8 80 16 97 50 19 36 19 132 1 168 -24 46 -50 51 -262 51 -212 0 -240 -6
-262 -55 -15 -34 -15 -126 0 -160 21 -47 53 -55 215 -55 l148 0 114 -147 113
-146 -16 -61 c-48 -172 -78 -256 -92 -256 -11 0 -14 -11 -12 -45 2 -25 6 -45
10 -45 4 0 18 15 32 33 22 27 24 34 11 43 -13 9 -9 30 26 150 23 76 44 145 48
151 4 8 125 -140 311 -379 l305 -392 47 -231 c25 -126 49 -242 52 -257 4 -21
2 -28 -9 -28 -21 0 -19 -17 6 -56 25 -41 39 -43 39 -6 0 15 3 38 7 51 5 20 3
23 -10 18 -12 -4 -18 0 -22 16 -13 53 -93 462 -91 464 2 2 469 -596 474 -606
1 -3 -141 -5 -315 -3 -343 3 -363 1 -388 -49 -19 -36 -19 -132 -1 -168 25 -47
49 -51 284 -51 l217 0 323 -323 c235 -235 321 -327 317 -339 -5 -12 6 -22 42
-39 l48 -23 -90 -6 c-105 -7 -121 -13 -140 -51 -18 -34 -20 -128 -3 -164 23
-50 48 -55 285 -55 l218 0 324 -324 c280 -280 323 -327 312 -340 -11 -13 -9
-17 15 -27 47 -18 94 -19 94 -1 0 13 3 12 20 -3 19 -18 20 -17 20 6 0 60 -26
86 -53 54 -5 -6 -7 -3 -3 8 3 11 -385 720 -1134 2069 -627 1128 -1140 2053
-1140 2054 0 2 50 4 110 4 160 0 190 22 190 135 0 66 -15 102 -51 121 -39 20
-632 20 -668 0z m680 -25 c26 -27 29 -36 29 -96 0 -60 -3 -69 -29 -96 l-29
-29 -317 0 -317 0 -29 29 c-26 27 -29 36 -29 96 0 60 3 69 29 96 l29 29 317 0
317 0 29 -29z m861 -2278 c625 -1127 1138 -2055 1140 -2063 10 -48 -46 9 -194
200 -92 118 -200 257 -240 308 -72 92 -89 122 -69 122 36 0 55 144 26 199 -20
39 -35 44 -150 51 l-99 5 -624 800 c-342 440 -629 811 -636 825 -11 19 -326
1560 -326 1593 0 4 8 7 18 7 13 0 309 -525 1154 -2047z m-1581 1778 c26 -27
29 -36 29 -96 0 -60 -3 -69 -29 -96 l-29 -29 -207 0 -207 0 -29 29 c-26 27
-29 36 -29 96 0 60 3 69 29 96 l29 29 207 0 207 0 29 -29z m1215 -1978 c-3 -3
4 -17 14 -31 15 -19 20 -40 20 -89 0 -58 -3 -68 -29 -94 l-29 -29 -317 0 -317
0 -29 29 c-26 27 -29 36 -29 96 0 60 3 69 30 96 l29 30 331 -1 c183 -1 329 -4
326 -7z m409 -518 l357 -460 -113 -3 c-62 -1 -119 0 -126 3 -8 2 -23 25 -34
50 -15 34 -25 45 -37 41 -13 -4 -105 82 -337 314 l-320 320 83 0 c133 0 167
32 160 149 -1 33 0 57 3 53 4 -4 167 -214 364 -467z m596 -504 c26 -27 29 -36
29 -96 0 -60 -3 -69 -29 -96 l-29 -29 -317 0 -317 0 -29 29 c-26 27 -29 36
-29 96 0 60 3 69 29 96 l29 29 317 0 317 0 29 -29z m218 -543 c170 -219 239
-314 231 -322 -7 -7 -106 85 -333 312 l-322 322 91 0 90 0 243 -312z"/>
<path d="M151 3426 c-13 -7 -30 -24 -37 -37 -17 -30 -18 -130 -2 -164 24 -53
36 -55 428 -55 392 0 404 2 428 55 7 14 12 50 12 80 0 66 -15 102 -51 121 -39
20 -742 20 -778 0z m790 -25 c26 -27 29 -36 29 -96 0 -60 -3 -69 -29 -96 l-29
-29 -372 0 -372 0 -29 29 c-26 27 -29 36 -29 96 0 60 3 69 29 96 l29 29 372 0
372 0 29 -29z"/>
<path d="M3151 426 c-35 -20 -50 -54 -51 -118 0 -69 15 -105 51 -124 41 -21
627 -21 668 0 36 19 51 55 51 121 0 66 -15 102 -51 121 -39 20 -632 20 -668 0z
m680 -25 c26 -27 29 -36 29 -96 0 -60 -3 -69 -29 -96 l-29 -29 -317 0 -317 0
-29 29 c-26 27 -29 36 -29 96 0 60 3 69 29 96 l29 29 317 0 317 0 29 -29z"/>
</g>
</svg>
