<?xml version="1.0" standalone="no"?>
<!DOCTYPE svg PUBLIC "-//W3C//DTD SVG 20010904//EN"
 "http://www.w3.org/TR/2001/REC-SVG-20010904/DTD/svg10.dtd">
<svg version="1.0" xmlns="http://www.w3.org/2000/svg"
 width="396.000000pt" height="509.000000pt" viewBox="0 0 396.000000 509.000000"
 preserveAspectRatio="xMidYMid meet">
<metadata>
Created by potrace 1.15, written by Peter Selinger 2001-2017
</metadata>
<g transform="translate(0.000000,509.000000) scale(0.100000,-0.100000)"
fill="#000000" stroke="none">
<path d="M840 4670 l164 -5 152 -760 c84 -418 151 -761 150 -762 -5 -6 -589
761 -589 773 0 7 42 151 94 320 72 235 98 308 111 312 19 4 21 28 9 71 l-6 24
-29 -33 c-24 -29 -26 -35 -13 -45 13 -9 1 -54 -81 -323 -53 -172 -99 -311
-103 -310 -8 3 -179 224 -179 232 0 3 24 7 53 9 28 2 -49 3 -173 3 -166 0
-182 -1 -63 -3 l162 -3 101 -132 c60 -79 99 -137 95 -146 -3 -8 -26 -84 -52
-170 -35 -116 -52 -156 -65 -160 -19 -4 -22 -27 -9 -71 l6 -24 29 33 c24 29
26 35 13 45 -12 9 -7 34 36 178 28 92 54 166 58 165 11 -5 590 -760 600 -782
20 -49 111 -540 100 -544 -16 -5 -14 -21 10 -59 24 -39 32 -34 43 30 6 35 5
38 -11 33 -17 -5 -23 18 -70 252 -28 141 -50 258 -48 260 1 1 285 -366 632
-815 l629 -818 -120 -3 c-132 -3 -141 0 -162 61 -8 23 -17 32 -32 32 -15 0
-120 98 -337 315 l-315 315 77 6 c43 3 -59 5 -227 5 -211 0 -239 -1 -90 -3
l215 -3 328 -328 c187 -187 325 -332 322 -340 -3 -7 7 -17 22 -23 65 -24 60
-34 -23 -40 -43 -3 58 -5 226 -5 168 0 266 2 219 3 l-87 4 -633 822 c-348 452
-639 833 -646 847 -8 14 -83 371 -167 793 -142 712 -152 768 -133 765 28 -4
2310 -4113 2292 -4128 -9 -7 -74 70 -263 317 l-252 327 20 21 c30 32 24 38 -7
7 l-28 -27 101 -130 c331 -427 392 -511 383 -520 -6 -6 -123 104 -329 310
l-320 320 77 6 c43 3 -59 5 -227 5 -211 0 -239 -1 -90 -3 l215 -3 327 -327
c250 -250 325 -330 316 -340 -8 -10 -3 -15 18 -24 39 -15 94 -19 94 -6 0 5 7
4 15 -3 13 -10 15 -9 15 11 0 40 -12 70 -25 66 -7 -3 -454 791 -1156 2056
l-1144 2062 110 6 c60 3 -27 5 -195 5 -228 0 -263 -2 -140 -6z"/>
</g>
</svg>
