<?xml version="1.0" standalone="no"?>
<!DOCTYPE svg PUBLIC "-//W3C//DTD SVG 20010904//EN"
 "http://www.w3.org/TR/2001/REC-SVG-20010904/DTD/svg10.dtd">
<svg version="1.0" xmlns="http://www.w3.org/2000/svg"
 width="398.000000pt" height="510.000000pt" viewBox="0 0 398.000000 510.000000"
 preserveAspectRatio="xMidYMid meet">
<metadata>
Created by potrace 1.15, written by Peter Selinger 2001-2017
</metadata>
<g transform="translate(0.000000,510.000000) scale(0.100000,-0.100000)"
fill="#000000" stroke="none">
<path d="M661 4936 c-35 -20 -50 -54 -51 -119 0 -62 18 -109 47 -123 10 -5 94
-11 188 -14 l169 -5 152 -760 c84 -418 151 -761 150 -762 -5 -6 -589 761 -589
773 0 7 42 151 94 320 72 235 98 308 111 312 19 4 21 28 9 71 l-6 24 -29 -33
c-24 -29 -26 -35 -13 -45 13 -9 1 -54 -81 -323 -53 -172 -99 -311 -103 -310
-4 2 -46 54 -94 116 l-86 112 51 0 c62 0 105 20 125 60 19 37 19 133 0 170
-29 55 -52 60 -295 60 -243 0 -266 -5 -295 -60 -19 -37 -19 -133 0 -170 27
-53 56 -60 238 -60 l164 0 93 -121 c51 -67 93 -127 94 -133 0 -6 -21 -85 -48
-175 -38 -124 -54 -165 -68 -169 -19 -4 -22 -27 -9 -71 l6 -24 29 33 c24 29
26 35 13 45 -12 9 -7 34 36 178 28 92 54 166 58 165 11 -5 590 -760 600 -782
20 -49 111 -540 100 -544 -16 -5 -14 -21 10 -59 24 -39 32 -34 43 30 6 35 5
38 -11 33 -17 -5 -23 18 -70 252 -28 141 -50 258 -48 260 1 1 285 -366 632
-815 l629 -818 -120 -3 c-132 -3 -141 0 -162 61 -8 23 -17 31 -31 30 -13 -1
-117 96 -338 317 l-320 320 77 0 c124 0 158 29 158 135 0 66 -18 106 -55 123
-37 17 -613 17 -650 0 -37 -17 -55 -57 -55 -123 0 -66 18 -106 55 -123 17 -8
95 -12 238 -12 l212 0 329 -329 c187 -187 326 -333 322 -340 -4 -6 8 -16 27
-25 62 -25 54 -36 -27 -36 -87 0 -122 -13 -142 -51 -17 -34 -18 -128 -2 -164
23 -50 48 -55 280 -55 l213 0 323 -323 c248 -249 320 -325 311 -334 -10 -10
-6 -15 17 -24 47 -18 94 -19 94 -1 0 13 3 12 20 -3 19 -18 20 -17 20 6 0 42
-12 69 -28 67 -11 -2 -340 582 -1156 2052 l-1141 2055 115 5 c130 6 145 11
165 51 18 34 20 128 3 164 -24 52 -41 55 -370 55 -232 -1 -309 -4 -327 -14z
m670 -25 c26 -27 29 -36 29 -96 0 -60 -3 -69 -29 -96 l-29 -29 -312 0 -312 0
-29 29 c-26 27 -29 36 -29 96 0 60 3 69 29 96 l29 29 312 0 312 0 29 -29z
m870 -2285 c879 -1583 1136 -2053 1127 -2063 -6 -7 -12 -12 -14 -11 -36 37
-491 644 -484 646 21 7 40 62 40 116 0 109 -33 136 -163 136 l-84 0 -634 823
c-348 452 -639 833 -646 847 -8 14 -83 371 -167 793 -142 712 -152 768 -133
765 15 -2 296 -500 1158 -2052z m-1530 1785 c26 -27 29 -36 29 -96 0 -60 -3
-69 -29 -96 l-29 -29 -232 0 -232 0 -29 29 c-26 27 -29 36 -29 96 0 60 3 69
29 96 l29 29 232 0 232 0 29 -29z m1160 -2000 c26 -27 29 -36 29 -96 0 -60 -3
-69 -29 -96 l-29 -29 -312 0 -312 0 -29 29 c-26 27 -29 36 -29 96 0 60 3 69
29 96 l29 29 312 0 312 0 29 -29z m1000 -1000 c26 -27 29 -36 29 -96 0 -60 -3
-69 -29 -96 l-29 -29 -312 0 -312 0 -29 29 c-26 27 -29 36 -29 96 0 60 3 69
29 96 l29 29 312 0 312 0 29 -29z m233 -550 c155 -202 223 -298 216 -305 -7
-7 -110 89 -325 304 l-315 315 82 5 c65 4 87 2 99 -10 10 -8 119 -148 243
-309z"/>
<path d="M161 3436 c-13 -7 -30 -24 -37 -37 -17 -30 -18 -130 -2 -164 24 -53
38 -55 408 -55 370 0 384 2 408 55 7 14 12 50 12 80 0 66 -15 102 -51 121 -39
20 -702 20 -738 0z m750 -25 c26 -27 29 -36 29 -96 0 -60 -3 -69 -29 -96 l-29
-29 -352 0 -352 0 -29 29 c-26 27 -29 36 -29 96 0 60 3 69 29 96 l29 29 352 0
352 0 29 -29z"/>
<path d="M3158 444 c-39 -20 -58 -64 -58 -129 0 -67 20 -109 60 -130 43 -22
617 -22 660 0 40 21 60 63 60 130 0 67 -20 109 -60 130 -43 22 -621 22 -662
-1z m673 -33 c26 -27 29 -36 29 -96 0 -60 -3 -69 -29 -96 l-29 -29 -312 0
-312 0 -29 29 c-26 27 -29 36 -29 96 0 60 3 69 29 96 l29 29 312 0 312 0 29
-29z"/>
</g>
</svg>
